<svg id="Layer_1" enable-background="new 0 0 510.896 510.896" height="512" viewBox="0 0 510.896 510.896" width="512" xmlns="http://www.w3.org/2000/svg"><g><circle cx="119.474" cy="191.412" fill="#c6fff6" r="112"/><path d="m128.512 303.041c25.581-2.059 50.589-12.865 70.158-32.434 21.294-21.294 32.217-49.03 32.777-76.934-53.95 10.248-95.911 54.345-102.935 109.368z" fill="#b6e6fa"/><path d="m198.67 112.216c-23.906-23.905-55.929-34.745-87.196-32.519 25.941 1.846 51.363 12.686 71.196 32.519 43.739 43.739 43.739 114.653 0 158.392-19.833 19.833-45.255 30.673-71.196 32.519 31.267 2.226 63.291-8.614 87.196-32.519 43.739-43.738 43.739-114.653 0-158.392z" fill="#b6e6fa"/><circle cx="119.474" cy="191.412" fill="#fff" r="56"/><path d="m119.474 135.412c-2.717 0-5.386.204-8 .578 27.137 3.883 48 27.211 48 55.422s-20.863 51.539-48 55.422c2.614.374 5.283.578 8 .578 30.928 0 56-25.072 56-56s-25.072-56-56-56z" fill="#c8d1da"/><g fill="#fff"><path d="m40.278 270.608c7.779 7.779 16.42 14.167 25.613 19.179 9.41-12.535 8.419-30.402-2.985-41.806s-29.271-12.395-41.806-2.985c5.011 9.191 11.399 17.833 19.178 25.612z"/><path d="m21.1 137.829c12.535 9.41 30.402 8.419 41.806-2.985s12.395-29.271 2.985-41.806c-9.192 5.012-17.834 11.4-25.613 19.179s-14.167 16.419-19.178 25.612z"/><path d="m198.67 112.216c-7.779-7.779-16.42-14.167-25.613-19.179-9.41 12.535-8.419 30.402 2.985 41.806s29.271 12.395 41.806 2.985c-5.011-9.192-11.399-17.833-19.178-25.612z"/></g><path d="m217.844 137.832c-3.95 2.96-8.42 4.89-13.05 5.79-5.35-11.36-12.73-22.01-22.12-31.41-4.34-4.33-8.95-8.25-13.77-11.72 1.02-2.62 2.4-5.12 4.15-7.45 9.2 5.01 17.84 11.4 25.62 19.17 7.77 7.78 14.16 16.42 19.17 25.62z" fill="#c8d1da"/><circle cx="391.474" cy="191.412" fill="#f8e868" r="112"/><path d="m312.278 270.608c19.569 19.569 44.578 30.375 70.158 32.434-7.024-55.023-48.985-99.121-102.935-109.368.56 27.904 11.483 55.64 32.777 76.934z" fill="#efc17a"/><path d="m470.67 112.216c-23.906-23.905-55.929-34.745-87.196-32.519 25.941 1.846 51.363 12.686 71.196 32.519 43.739 43.739 43.739 114.653 0 158.392-19.833 19.833-45.255 30.673-71.196 32.519 31.267 2.226 63.291-8.614 87.196-32.519 43.739-43.739 43.739-114.653 0-158.392z" fill="#efc17a"/><circle cx="391.474" cy="191.412" fill="#fff" r="56"/><path d="m391.474 135.412c-2.717 0-5.386.204-8 .578 27.137 3.883 48 27.211 48 55.422s-20.863 51.539-48 55.422c2.614.374 5.283.578 8 .578 30.928 0 56-25.072 56-56s-25.072-56-56-56z" fill="#c8d1da"/><path d="m445.057 93.037c-9.41 12.535-8.419 30.402 2.985 41.806s29.271 12.395 41.806 2.985c-5.012-9.192-11.4-17.834-19.179-25.613s-16.419-14.166-25.612-19.178z" fill="#fff"/><path d="m489.844 137.832c-3.94 2.96-8.41 4.89-13.04 5.79-5.36-11.36-12.74-22.01-22.13-31.41-4.34-4.34-8.95-8.25-13.78-11.71 1.02-2.62 2.41-5.13 4.16-7.46 9.2 5.01 17.84 11.4 25.62 19.17 7.77 7.78 14.16 16.42 19.17 25.62z" fill="#c8d1da"/><path d="m470.67 270.608c7.779-7.779 14.167-16.42 19.179-25.613-12.535-9.41-30.402-8.419-41.806 2.985s-12.395 29.271-2.985 41.806c9.192-5.011 17.833-11.399 25.612-19.178z" fill="#fff"/><path d="m489.844 244.992c-5.01 9.2-11.4 17.84-19.17 25.62-7.78 7.77-16.42 14.16-25.62 19.17-1.75-2.33-3.14-4.84-4.16-7.46 4.83-3.46 9.44-7.37 13.78-11.71 9.39-9.4 16.77-20.05 22.12-31.41 4.63.9 9.1 2.83 13.05 5.79z" fill="#c8d1da"/><path d="m312.278 112.216c-7.779 7.779-14.167 16.42-19.179 25.613 12.535 9.41 30.402 8.419 41.806-2.985s12.395-29.271 2.985-41.806c-9.191 5.011-17.833 11.399-25.612 19.178z" fill="#fff"/><g><circle cx="255.474" cy="319.412" fill="#e46a4a" r="112"/><g><path d="m334.67 240.216c-23.906-23.905-55.929-34.745-87.196-32.519 25.941 1.846 51.363 12.686 71.196 32.519 43.739 43.739 43.739 114.653 0 158.392-19.833 19.833-45.255 30.673-71.196 32.519 31.267 2.226 63.291-8.614 87.196-32.519 43.739-43.739 43.739-114.654 0-158.392z" fill="#d03582"/></g><circle cx="255.474" cy="319.412" fill="#fff" r="56"/><path d="m255.474 263.412c-2.717 0-5.386.204-8 .578 27.137 3.883 48 27.211 48 55.422s-20.863 51.539-48 55.422c2.614.374 5.283.578 8 .578 30.928 0 56-25.072 56-56s-25.072-56-56-56z" fill="#c8d1da"/><g fill="#fff"><path d="m353.849 372.995c-12.535-9.41-30.402-8.419-41.806 2.985s-12.395 29.271-2.985 41.806c9.192-5.012 17.834-11.4 25.613-19.179s14.166-16.42 19.178-25.612z"/><path d="m176.278 398.608c7.779 7.779 16.42 14.167 25.613 19.179 9.41-12.535 8.419-30.402-2.985-41.806s-29.271-12.395-41.806-2.985c5.011 9.191 11.399 17.833 19.178 25.612z"/><path d="m157.1 265.829c12.535 9.41 30.402 8.419 41.806-2.985s12.395-29.271 2.985-41.806c-9.192 5.012-17.834 11.4-25.613 19.179-7.779 7.778-14.167 16.419-19.178 25.612z"/><path d="m334.67 240.216c-7.779-7.779-16.42-14.167-25.613-19.179-9.41 12.535-8.419 30.402 2.985 41.806s29.271 12.395 41.806 2.985c-5.011-9.192-11.399-17.833-19.178-25.612z"/></g><path d="m353.844 265.832c-3.94 2.96-8.41 4.89-13.04 5.79-5.36-11.36-12.74-22.01-22.13-31.41-4.34-4.34-8.95-8.25-13.78-11.71 1.02-2.62 2.41-5.13 4.16-7.46 9.2 5.01 17.84 11.4 25.62 19.17 7.77 7.78 14.16 16.42 19.17 25.62z" fill="#c8d1da"/><path d="m353.844 372.992c-5.01 9.2-11.4 17.84-19.17 25.62-7.78 7.77-16.42 14.16-25.62 19.17-1.75-2.33-3.14-4.84-4.16-7.46 4.83-3.46 9.44-7.37 13.78-11.71 9.39-9.4 16.77-20.05 22.12-31.41 4.63.9 9.1 2.83 13.05 5.79z" fill="#c8d1da"/></g><g><path d="m119.474 127.912c-35.014 0-63.5 28.486-63.5 63.5 3.192 84.126 123.821 84.103 127-.001 0-35.013-28.486-63.499-63.5-63.499zm0 112c-26.743 0-48.5-21.757-48.5-48.5 2.438-64.254 94.572-64.236 97 .001 0 26.742-21.757 48.499-48.5 48.499z"/><path d="m454.974 191.412c0-35.014-28.486-63.5-63.5-63.5-84.126 3.193-84.103 123.82.001 127 35.013 0 63.499-28.486 63.499-63.5zm-112 0c0-26.743 21.757-48.5 48.5-48.5 64.254 2.438 64.236 94.572-.001 97-26.742 0-48.499-21.757-48.499-48.5z"/><path d="m475.974 106.913c-78.086-78.189-212.963-15.665-203.611 94.198-61.986-9.418-121.485 33.577-133.691 93.033-21.42 3.995-43.076 1.228-62.305-7.499 14.575-32.863-19.237-66.679-52.09-52.141-12.328-27.313-12.328-58.873 0-86.185 33.138 14.487 66.527-19.257 52.105-52.105 27.313-12.327 58.873-12.328 86.186 0-14.433 32.899 19.028 66.617 52.153 52.085 6.059 13.37 9.254 27.995 9.254 43.113h15c.872-105.274-129.999-159.476-204-84.497-80.691 80.917-11.255 219.054 101.395 202.8-5.919 69.025 49.791 129.528 119.105 129.197 139.164-3.06 164.065-195.006 32.308-234.559-2.435-19.528.562-38.792 8.417-56.067 32.898 14.506 66.702-18.906 52.199-52.08 27.302-12.317 58.848-12.317 86.151 0-14.493 33.154 19.255 66.532 52.122 52.113 12.328 27.313 12.328 58.873 0 86.186-32.606-14.458-66.695 18.951-52.135 52.084-14.554 6.577-30.58 9.831-46.797 9.257l-.531 14.99c107.64 3.962 165.096-127.702 88.765-203.923zm-268.468 28.135c-19.679 7.675-39.329-11.969-31.678-31.643 12.438 7.898 23.722 19.176 31.678 31.643zm-161.924-17.529c5.431-5.431 11.32-10.131 17.538-14.114 7.65 19.675-11.991 39.3-31.653 31.652 3.984-6.218 8.684-12.107 14.115-17.538zm-14.115 130.247c19.682-7.652 39.31 12.004 31.647 31.668-12.461-7.938-23.756-19.235-31.647-31.668zm167.664-16.329c7.612 19.654-11.99 39.243-31.631 31.631 8.146-12.675 18.955-23.485 31.631-31.631zm-31.632 144.318c19.654-7.613 39.242 11.99 31.632 31.632-12.676-8.147-23.485-18.956-31.632-31.632zm44.883 38.852c14.534-32.858-19.269-66.633-52.104-52.104-12.304-25.96-12.303-60.224 0-86.183 33.137 14.484 66.523-19.257 52.104-52.104 25.954-12.301 60.209-12.304 86.166-.008-14.49 33.153 19.255 66.528 52.121 52.112 12.304 25.96 12.304 60.224 0 86.184-32.744-14.39-66.639 18.855-52.121 52.112-25.956 12.296-60.212 12.292-86.166-.009zm99.414-7.206c-7.638-19.85 12.159-39.214 31.653-31.646-8.152 12.683-18.968 23.498-31.653 31.646zm31.652-144.333c-19.508 7.57-39.286-11.805-31.653-31.645 12.686 8.148 23.502 18.962 31.653 31.645zm-6.669-150.852c.292 17.096-17.921 29.134-33.348 22.828 7.954-12.44 19.271-23.765 31.71-31.653 1.071 2.779 1.638 5.757 1.638 8.825zm116.567 17.324c-6.823-6.654-9.028-17.327-5.539-26.149 12.415 7.864 23.805 19.252 31.673 31.666-8.762 3.364-19.079 1.538-26.134-5.517zm12.021 135.764c-5.359 5.359-11.262 10.071-17.571 14.098-7.644-19.867 12.185-39.236 31.685-31.636-3.983 6.218-8.683 12.107-14.114 17.538z"/><path d="m318.974 319.412c0-35.014-28.486-63.5-63.5-63.5-84.126 3.192-84.103 123.821.001 127 35.013 0 63.499-28.486 63.499-63.5zm-63.5 48.5c-26.743 0-48.5-21.757-48.5-48.5 2.438-64.254 94.572-64.236 97 .001 0 26.742-21.757 48.499-48.5 48.499z"/><path d="m215.474 311.912h16v15h-16z"/><path d="m247.474 311.912h16v15h-16z"/><path d="m279.474 311.912h16v15h-16z"/><path d="m414.974 207.412c0-6.177-2.399-11.801-6.31-16 13.925-14.598 3.194-39.657-17.191-39.5-20.383-.158-31.117 24.906-17.19 39.5-13.927 14.6-3.193 39.657 17.191 39.5 12.958 0 23.5-10.542 23.5-23.5zm-23.5-40.5c4.687 0 8.5 3.813 8.5 8.5-.399 11.25-16.602 11.247-17 0 0-4.687 3.814-8.5 8.5-8.5zm-8.5 40.5c0-4.687 3.813-8.5 8.5-8.5 11.25.399 11.247 16.602 0 17-4.686 0-8.5-3.813-8.5-8.5z"/><path d="m127.974 183.912h-17v-24.5h-15v39.5h32v24.5h15v-64h-15z"/></g></g></svg>