<?xml version="1.0" encoding="iso-8859-1"?>
<!-- Generator: Adobe Illustrator 19.0.0, SVG Export Plug-In . SVG Version: 6.00 Build 0)  -->
<svg version="1.1" id="Layer_1" xmlns="http://www.w3.org/2000/svg" xmlns:xlink="http://www.w3.org/1999/xlink" x="0px" y="0px"
	 viewBox="0 0 512 512" style="enable-background:new 0 0 512 512;" xml:space="preserve">
<g>
	<g>
		<path d="M289.391,239.304h-50.087v-33.391h50.087c9.22,0,16.696-7.475,16.696-16.696s-7.475-16.696-16.696-16.696h-16.696v-16.696
			c0-9.22-7.475-16.696-16.696-16.696c-9.22,0-16.696,7.475-16.696,16.696v16.696h-16.696c-9.22,0-16.696,7.475-16.696,16.696V256
			c0,9.22,7.475,16.696,16.696,16.696h50.087v33.391h-50.087c-9.22,0-16.696,7.475-16.696,16.696s7.475,16.696,16.696,16.696h16.696
			v16.696c0,9.22,7.475,16.696,16.696,16.696c9.22,0,16.696-7.475,16.696-16.696v-16.696h16.696c9.22,0,16.696-7.475,16.696-16.696
			V256C306.087,246.78,298.612,239.304,289.391,239.304z"/>
	</g>
</g>
<g>
	<g>
		<path d="M256,0C115.049,0,0,114.668,0,256c0,140.591,114.308,256,256,256c141.444,0,256-115.176,256-256
			C512,114.581,396.852,0,256,0z M463.301,174.871l-34.211,19.751c-7.593-21.349-19.026-40.891-33.47-57.789l34.194-19.742
			C443.699,134.429,455.055,153.874,463.301,174.871z M406.261,256c0,82.834-67.407,150.261-150.261,150.261
			c-82.819,0-150.261-67.399-150.261-150.261c0-82.834,67.396-150.261,150.261-150.261C338.647,105.739,406.261,172.955,406.261,256
			z M322.783,43.63c31.447,9.911,59.898,26.628,83.629,48.416l-35.725,20.626c-14.366-11.519-30.489-20.931-47.903-27.753V43.63z
			 M222.609,35.896c10.894-1.646,22.045-2.504,33.391-2.504c11.346,0,22.497,0.858,33.391,2.504v39.503
			c-10.832-1.998-21.99-3.051-33.391-3.051c-11.401,0-22.559,1.053-33.391,3.051V35.896z M189.217,43.63V84.92
			c-17.415,6.822-33.537,16.234-47.903,27.753l-35.725-20.626C129.319,70.259,157.771,53.541,189.217,43.63z M82.186,117.091
			l34.194,19.742c-14.445,16.899-25.878,36.441-33.47,57.789l-34.211-19.751C56.946,153.874,68.301,134.429,82.186,117.091z
			 M33.391,256c0-16.6,1.841-32.776,5.304-48.347l35.742,20.636c-1.373,9.04-2.089,18.294-2.089,27.711
			c0,9.417,0.716,18.671,2.089,27.711l-35.742,20.636C35.232,288.776,33.391,272.6,33.391,256z M48.698,337.129l34.211-19.751
			c7.593,21.349,19.026,40.891,33.47,57.789l-34.194,19.742C68.301,377.571,56.944,358.126,48.698,337.129z M189.217,468.37
			c-31.447-9.911-59.898-26.628-83.629-48.416l35.725-20.626c14.366,11.519,30.489,20.931,47.903,27.753V468.37z M289.391,476.104
			c-10.894,1.646-22.045,2.504-33.391,2.504c-11.346,0-22.497-0.858-33.391-2.504v-39.503c10.832,1.998,21.99,3.051,33.391,3.051
			c11.401,0,22.559-1.053,33.391-3.051V476.104z M322.783,468.37V427.08c17.415-6.822,33.537-16.234,47.903-27.753l35.725,20.626
			C382.681,441.741,354.229,458.459,322.783,468.37z M429.814,394.909l-34.194-19.742c14.445-16.899,25.878-36.441,33.47-57.789
			l34.21,19.751C455.055,358.126,443.699,377.571,429.814,394.909z M437.563,283.711c1.373-9.04,2.089-18.294,2.089-27.711
			c0-9.417-0.716-18.671-2.089-27.711l35.742-20.636c3.463,15.571,5.304,31.747,5.304,48.347s-1.841,32.776-5.304,48.347
			L437.563,283.711z"/>
	</g>
</g>
<g>
</g>
<g>
</g>
<g>
</g>
<g>
</g>
<g>
</g>
<g>
</g>
<g>
</g>
<g>
</g>
<g>
</g>
<g>
</g>
<g>
</g>
<g>
</g>
<g>
</g>
<g>
</g>
<g>
</g>
</svg>
